<svg width="290" height="60" viewBox="0 0 290 60" fill="none" xmlns="http://www.w3.org/2000/svg">
<path fill-rule="evenodd" clip-rule="evenodd" d="M0 0H63.5531V60H0V0ZM7.94413 51.7241V8.27586H55.6089V51.7241H36.7416V41.3793H26.8114V51.7241H7.94413ZM173.706 45.9618C170.478 45.8877 167.889 44.7763 165.941 42.6279C163.993 40.4795 162.89 37.605 162.634 34.0046C162.492 32.2265 162.627 30.1374 163.039 27.7371C163.452 25.3219 164.184 23.0994 165.237 21.0695C166.29 19.0396 167.605 17.3504 169.184 16.0021C171.83 13.7351 174.873 12.6387 178.315 12.7128C180.434 12.7572 182.283 13.2685 183.862 14.2464C185.455 15.2095 186.728 16.6022 187.68 18.4247C188.633 20.2471 189.189 22.3216 189.344 24.6478C189.459 26.2924 189.359 28.1667 189.046 30.2707C188.748 32.3599 188.186 34.3601 187.36 36.2715C186.55 38.1681 185.497 39.8424 184.204 41.2944C182.909 42.7465 181.379 43.9022 179.616 44.7616C177.867 45.6061 175.897 46.0061 173.706 45.9618ZM182.027 24.5811C181.885 20.8769 180.506 18.9507 177.888 18.8026C175.868 18.6988 174.197 19.5359 172.874 21.314C171.552 23.0771 170.677 25.685 170.251 29.1372C169.981 31.2709 169.88 32.9229 169.952 34.0934C170.094 37.8569 171.488 39.7905 174.133 39.8942C175.868 39.9832 177.362 39.3386 178.614 37.9607C179.865 36.5678 180.769 34.5528 181.323 31.9153C181.878 29.2631 182.112 26.8184 182.027 24.5811ZM105.477 45.5172H112.773L118.171 13.1573H92.7617L87.3855 45.5172H94.6821L99.0762 19.1803H109.85L105.477 45.5172ZM154.935 13.1573H147.447L133.516 33.1378L136.865 13.1573H129.548L124.15 45.5172H131.66L145.591 25.559L142.242 45.5172H149.559L154.935 13.1573ZM214.449 45.5172H221.703L227.101 13.1573H219.825L217.692 26.0035H207.025L209.18 13.1573H201.862L196.485 45.5172H203.782L206.043 32.0043H216.689L214.449 45.5172ZM253.613 31.8042H242.199L240.898 39.5164H254.403L253.4 45.5172H232.599L237.975 13.1573H258.819L257.816 19.1803H244.29L243.138 26.0035H254.573L253.613 31.8042ZM269.95 45.5172L271.784 34.538L276.905 34.5602C279.279 34.5602 281.42 34.1379 283.326 33.2934C285.246 32.4488 286.789 31.2264 287.955 29.6262C289.122 28.026 289.79 26.1368 289.961 23.9587C290.202 20.7731 289.328 18.1802 287.336 16.1799C285.36 14.1797 282.643 13.1795 279.187 13.1795L268.029 13.1573L262.653 45.5172H269.95ZM277.182 28.5594L272.787 28.5149L274.344 19.1803L279.443 19.2026C280.34 19.2619 281.057 19.5581 281.598 20.0916C282.153 20.6102 282.486 21.3214 282.601 22.2252C282.799 23.9884 282.409 25.4774 281.427 26.6924C280.446 27.8927 279.031 28.5149 277.182 28.5594Z" fill="#005695"/>
</svg>
